# xmcd
#
# Track frame offsets: 
#        150
#        13077
#        44940
#        69062
#        80445
#        90425
#        100955
#        114930
#        128630
#        143597
#        168385
#        183482
#        213560
#        229320
#        235372
#        246047
#        255970
#        261747
#        278092
#        288907
#        300582
#
# Disc length: 4139 seconds
#
# Revision: 2
# Processed by: cddbd v1.5.2PL0 Copyright (c) Steve Scherf et al.
# Submitted via: ExactAudioCopy v0.99pb5
#
DISCID=26102915
DTITLE=Various Artist - Historische Orgel in Nederland, het  cd 03 - Wijk bij
DTITLE=Duurstede, Edam, Culemborg
DYEAR=2000
DGENRE=Orgel
TTITLE0=Sweelinck - Toccata a 4 in d ∑ Grote of St-Jan Baptistkerk, Wi
TTITLE0=jk bij Duurstede ∑ Pieter Dirksen
TTITLE1=Schildt - Ach Gott, vom Himmel sieh darin ∑ Grote of St-Jan Ba
TTITLE1=ptistkerk, Wijk bij Duurstede ∑ Pieter Dirksen
TTITLE2=Reincken - Fuga in g ∑ Grote of St-Jan Baptistkerk, Wijk bij D
TTITLE2=uurstede ∑ Pieter Dirksen
TTITLE3=Van Noordt - Psalm 50 (vers 1) ∑ Grote of St-Jan Baptistkerk, 
TTITLE3=Wijk bij Duurstede ∑ Pieter Dirksen
TTITLE4=Van Noordt - Psalm 50 (vers 2) ∑ Grote of St-Jan Baptistkerk, 
TTITLE4=Wijk bij Duurstede ∑ Pieter Dirksen
TTITLE5=Van Noordt - Psalm 50 (vers 3) ∑ Grote of St-Jan Baptistkerk, 
TTITLE5=Wijk bij Duurstede ∑ Pieter Dirksen
TTITLE6=Van Noordt - Psalm 50 (vers 4) ∑ Grote of St-Jan Baptistkerk, 
TTITLE6=Wijk bij Duurstede ∑ Pieter Dirksen
TTITLE7=Sweelinck - Psalm 116 Ick heb den Heer lief (var.1 en 2) ∑ Gro
TTITLE7=te of St-Nicolaskerk, Edam ∑ Bernard Winsemius
TTITLE8=Sweelinck - Psalm 116 Ick heb den Heer lief (var.3 en 4) ∑ Gro
TTITLE8=te of St-Nicolaskerk, Edam ∑ Bernard Winsemius
TTITLE9=Improvisation - O Petre, tot u bidden stelt ∑ Grote of St-Nico
TTITLE9=laskerk, Edam ∑ Bernard Winsemius
TTITLE10=Improvisation - Helpt Heer, Christum in dit lijden ∑ Grote of
TTITLE10=St-Nicolaskerk, Edam ∑ Bernard Winsemius
TTITLE11=Pachelebel - Aria Quarta in g ∑ Grote of St-Nicolaskerk, Edam
TTITLE11=∑ Bernard Winsemius
TTITLE12=Butler - Ik hoor trompetten klinken ∑ Grote of St-Nicolaskerk
TTITLE12=, Edam ∑ Bernard Winsemius
TTITLE13=Weckmann - Magnificat II. toni (versus 1) ∑ Grote of St-Barba
TTITLE13=rakerk, Culemborg ∑ Henk van Zonneveld
TTITLE14=Weckmann - Magnificat II. toni (versus 2) ∑ Grote of St-Barba
TTITLE14=rakerk, Culemborg ∑ Henk van Zonneveld
TTITLE15=Weckmann - Magnificat II. toni (versus 3) ∑ Grote of St-Barba
TTITLE15=rakerk, Culemborg ∑ Henk van Zonneveld
TTITLE16=Weckmann - Magnificat II. toni (versus 4) ∑ Grote of St-Barba
TTITLE16=rakerk, Culemborg ∑ Henk van Zonneveld
TTITLE17=Buxtehude - Ich ruf zu dir, Herr Jesu Christ, BuxWV 196 ∑ Gro
TTITLE17=te of St-Barbarakerk, Culemborg ∑ Henk van Zonneveld
TTITLE18=Buxtehude - Gelobet seist du, Jesu Christ, BuxWV 189 ∑ Grote 
TTITLE18=of St-Barbarakerk, Culemborg ∑ Henk van Zonneveld
TTITLE19=Bach - Herr Gott, nun schleuﬂ den Himmel auf, BWV 1092 ∑ Grot
TTITLE19=e of St-Barbarakerk, Culemborg ∑ Henk van Zonneveld
TTITLE20=Bach - Jesu, meine Freude, BWV 1105 ∑ Grote of St-Barbarakerk
TTITLE20=, Culemborg ∑ Henk van Zonneveld
EXTD=YEAR: 2000 ID3G:   0
EXTT0=
EXTT1=
EXTT2=
EXTT3=
EXTT4=
EXTT5=
EXTT6=
EXTT7=
EXTT8=
EXTT9=
EXTT10=
EXTT11=
EXTT12=
EXTT13=
EXTT14=
EXTT15=
EXTT16=
EXTT17=
EXTT18=
EXTT19=
EXTT20=
PLAYORDER=
